<?xml version="1.0" standalone="no"?>
<!DOCTYPE svg PUBLIC "-//W3C//DTD SVG 20010904//EN"
 "http://www.w3.org/TR/2001/REC-SVG-20010904/DTD/svg10.dtd">
<svg version="1.0" xmlns="http://www.w3.org/2000/svg"
 width="225.000000pt" height="225.000000pt" viewBox="0 0 225.000000 225.000000"
 preserveAspectRatio="xMidYMid meet">
<metadata>
Created by potrace 1.11, written by Peter Selinger 2001-2013
</metadata>
<g transform="translate(0.000000,225.000000) scale(0.100000,-0.100000)"
fill="#000000" stroke="none">
<path d="M1480 2005 c-20 -7 -34 -18 -32 -26 3 -17 25 -71 69 -167 18 -41 33
-76 33 -79 0 -2 36 -89 79 -191 44 -103 96 -227 116 -277 19 -49 42 -103 50
-120 36 -73 167 -392 168 -407 2 -21 0 -21 32 -6 14 6 25 18 25 27 0 24 -487
1248 -499 1255 -3 2 -22 -2 -41 -9z"/>
<path d="M594 1983 c6 -34 7 -47 51 -548 19 -220 39 -447 45 -505 6 -58 14
-145 18 -195 l7 -90 33 0 c25 0 32 -4 32 -20 0 -19 -5 -20 -165 -17 -96 2
-163 7 -160 12 5 8 -36 503 -75 900 -5 58 -14 161 -20 230 -19 239 -17 230
-52 230 l-31 0 7 -87 c4 -49 18 -209 31 -358 13 -148 35 -400 49 -560 14 -159
28 -307 31 -327 l5 -38 -116 0 c-101 0 -120 -3 -145 -21 -16 -11 -27 -25 -23
-30 3 -6 1 -15 -4 -22 -8 -9 24 -11 141 -7 84 2 133 6 110 8 -24 2 -43 7 -43
11 0 7 1615 8 1640 2 3 -1 -2 -6 -10 -11 -10 -7 9 -10 65 -11 44 0 90 -2 103
-5 18 -3 22 1 22 20 0 12 -9 31 -21 42 -19 17 -43 20 -223 24 -138 4 -191 8
-168 14 18 5 34 11 36 15 2 3 -5 24 -15 46 -11 22 -45 99 -75 170 -30 72 -64
148 -74 170 -18 37 -49 106 -241 550 -39 88 -83 188 -99 223 -17 34 -30 69
-30 77 0 7 -4 16 -9 19 -18 11 -41 -6 -41 -31 0 -14 47 -142 104 -286 57 -144
160 -404 229 -577 69 -173 133 -332 141 -352 l16 -38 -252 0 -253 0 3 685 c2
734 5 688 -43 688 -8 0 -19 -1 -25 -2 -7 -1 -10 -237 -10 -686 l0 -685 -115 0
-115 0 0 685 0 685 -25 6 c-58 14 -55 51 -57 -648 l-3 -643 -23 260 c-12 143
-35 402 -51 575 -16 173 -32 352 -36 398 l-7 82 -35 0 c-32 0 -34 -2 -29 -27z"/>
<path d="M1693 533 c9 -2 25 -2 35 0 9 3 1 5 -18 5 -19 0 -27 -2 -17 -5z"/>
<path d="M108 319 c-12 -8 17 -56 43 -69 27 -15 1921 -13 1954 2 14 6 25 19
25 29 0 10 4 21 10 24 26 16 1 20 -105 17 -92 -3 -115 -6 -115 -18 0 -12 -113
-14 -822 -13 -623 0 -817 3 -798 12 l25 11 -30 3 c-71 6 -178 7 -187 2z"/>
<path d="M498 313 c56 -2 148 -2 205 0 56 1 10 3 -103 3 -113 0 -159 -2 -102
-3z"/>
<path d="M1058 313 c56 -2 148 -2 205 0 56 1 10 3 -103 3 -113 0 -159 -2 -102
-3z"/>
<path d="M1478 313 c23 -2 61 -2 85 0 23 2 4 4 -43 4 -47 0 -66 -2 -42 -4z"/>
</g>
</svg>
